# xmcd
#
# Track frame offsets: 
#        182
#        14550
#        26180
#        39865
#        50690
#        61295
#        74250
#        86280
#        104722
#        118595
#
# Disc length: 1812 seconds
#
# Revision: 2
# Processed by: cddbd v1.4PL0 Copyright (c) Steve Scherf et al.
# Submitted via: ExactAudioCopy v0.90b3
#
DISCID=8607120a
DTITLE=Hank Williams, Jr. - Whiskey Bent And Hell Bound
DYEAR=1978
DGENRE=Country
TTITLE0=Whiskey Bent And Hell Bound
TTITLE1=Tired Of Being Johnny B. Good
TTITLE2=Outlaw Women
TTITLE3=(I Don't Have) Anymore Love Songs
TTITLE4=White Lightnin'
TTITLE5=Women I've Never Had
TTITLE6=O.D.'d In Denver
TTITLE7=Come And Go Blues
TTITLE8=Old Nashville Cowboys
TTITLE9=The Conversation
EXTD=\n\n\nYEAR: 1978  ID3G:   2
EXTT0=
EXTT1=
EXTT2=
EXTT3=
EXTT4=
EXTT5=
EXTT6=
EXTT7=
EXTT8=
EXTT9=
PLAYORDER=
